<svg width="30" height="13" fill="none" xmlns="http://www.w3.org/2000/svg"><path d="m29.522 3.015-3.396-.485c-.62-.38-1.263-.721-1.925-1.02a16.839 16.839 0 0 0-6.967-1.5h-.59a16.997 16.997 0 0 0-8.116 2.07l-1.714.934a11.815 11.815 0 0 0-5.718 1.55A2.283 2.283 0 0 0-.05 6.541v2.97a.5.5 0 0 0 .5.5h1.68a2.99 2.99 0 0 0 5.641 0h13.36a2.99 2.99 0 0 0 5.642 0h.179a.502.502 0 0 0 .186-.036l1.62-.65A1.89 1.89 0 0 0 29.95 7.56V3.51a.5.5 0 0 0-.429-.495ZM6.91 9.41a2 2 0 1 1-3.919-.8 2 2 0 0 1 3.92.8Zm9.041-.4h-8a3 3 0 1 0-6 0h-1V6.541c0-.458.245-.881.643-1.108A10.81 10.81 0 0 1 6.95 4.01h9v5Zm0-6H8.91l.097-.053a15.989 15.989 0 0 1 6.943-1.925V3.01Zm1-2h.283c2.015-.003 4.012.38 5.884 1.127l-.873.873H16.95v-2Zm8.96 8.4a2 2 0 1 1-3.919-.8 2 2 0 0 1 3.92.8Zm3.041-4.9h-1.5v1h1.5v2.05a.895.895 0 0 1-.566.836l-1.434.576c0-.046-.006-.092-.009-.138-.003-.046-.004-.1-.009-.15-.005-.05-.015-.1-.023-.15-.008-.05-.014-.1-.024-.145-.01-.046-.024-.096-.037-.144-.014-.047-.023-.095-.039-.142-.014-.046-.033-.09-.05-.136-.017-.046-.032-.093-.05-.138-.017-.045-.04-.086-.062-.128-.02-.043-.041-.09-.064-.132-.024-.043-.05-.08-.073-.12a1.55 1.55 0 0 0-.078-.126c-.03-.042-.056-.074-.083-.11-.027-.038-.059-.082-.09-.12-.033-.038-.062-.069-.094-.1-.03-.031-.065-.074-.1-.109-.034-.035-.068-.063-.102-.094-.035-.03-.072-.067-.11-.1-.038-.032-.077-.057-.114-.085-.038-.029-.076-.06-.116-.086-.04-.027-.085-.05-.128-.078a1.446 1.446 0 0 0-.119-.071c-.04-.022-.09-.045-.137-.067-.046-.022-.082-.041-.124-.059-.043-.018-.1-.037-.15-.055-.05-.018-.083-.032-.126-.046-.056-.017-.115-.03-.173-.044-.038-.009-.075-.021-.113-.029-.061-.013-.124-.02-.187-.029-.037-.005-.072-.013-.11-.016a3.003 3.003 0 0 0-3.305 2.985H16.95v-5h5.5a.5.5 0 0 0 .354-.147l1.297-1.296c.544.259 1.073.548 1.585.867a.501.501 0 0 0 .194.07l3.071.44v.566Z" fill="#1E1E1E" fill-opacity=".8"/></svg>