<svg width="28" height="28" fill="none" xmlns="http://www.w3.org/2000/svg"><path d="M26.268 10.413c-1.002-1.152-2.384-1.9-4.048-2.2 1.593-1.066 2.967-2.128 3.947-3.055 1.494-1.412 1.995-2.405 1.576-3.124-.465-.8-1.808-.794-4.228.018-2.044.686-4.59 1.878-7.17 3.357-.446.255-.888.516-1.32.78-.32-.898-.109-1.924.598-2.813.53-.666.648-1.512.309-2.208C15.576.438 14.796.002 13.844 0h-.026c-3.362 0-6.65 1.316-9.259 3.707C1.947 6.1.348 9.268.056 12.627c-.35 4.046.952 7.893 3.67 10.831A14.18 14.18 0 0 0 14.105 28c2.115 0 4.1-.384 5.902-1.142a13.284 13.284 0 0 0 4.346-2.94 12.983 12.983 0 0 0 2.688-3.99c.605-1.41.936-2.904.957-4.321.03-2.06-.569-3.857-1.731-5.194ZM15.09 7.437c.583-.365 1.19-.729 1.805-1.081 2.386-1.367 4.76-2.493 6.689-3.17 2.122-.746 2.99-.697 3.193-.6-.017.126-.177.693-1.57 1.965-1.162 1.063-2.86 2.313-4.78 3.52a54.119 54.119 0 0 1-4.503 2.535 8.193 8.193 0 0 0-1.563-2.704c.239-.155.482-.311.729-.465Zm-.165 3.654c-1.556.732-2.984 1.29-4.124 1.614a2.727 2.727 0 0 0-.831-1.454c.853-.818 2.055-1.765 3.47-2.734a7.137 7.137 0 0 1 1.485 2.574Zm11.972 4.5c-.079 5.442-4.991 11.315-12.79 11.315-3.621 0-7.109-1.526-9.57-4.187-2.505-2.71-3.707-6.26-3.383-9.998C1.711 6.31 7.392 1.094 13.818 1.094h.024c.528 0 .928.201 1.097.55.157.32.089.715-.181 1.055-.993 1.25-1.242 2.786-.681 4.082-.296.189-.586.379-.867.567l-.004.002c-1.752 1.174-3.232 2.341-4.216 3.323a2.759 2.759 0 0 0-2.264.22c-1.145.657-2.649 3.715-2.938 4.321a.543.543 0 0 0 .02.508c.09.156.253.257.433.272.305.024 1.17.086 2.132.086 1.168 0 2.48-.091 3.108-.45a2.73 2.73 0 0 0 1.314-1.79c1.352-.351 3.117-1.04 5.03-1.964a53.051 53.051 0 0 0 4.923-2.715h.01c4.593.131 6.183 3.408 6.139 6.43ZM9.754 13.364a1.637 1.637 0 0 1-.824 1.318c-.521.299-2.312.339-3.782.272.677-1.296 1.607-2.815 2.129-3.114a1.658 1.658 0 0 1 2.258.6c.164.282.24.602.219.924Z" fill="#1E1E1E" fill-opacity=".8"/></svg>