<svg width="30" height="30" fill="none" xmlns="http://www.w3.org/2000/svg"><path d="M27.6 1h-4.667a1.4 1.4 0 0 0-1.4 1.4v1.867h-3.819a1.4 1.4 0 0 0-1.314-.934h-2.8a1.4 1.4 0 0 0-1.314.934h-3.82V2.4a1.4 1.4 0 0 0-1.4-1.4H2.4A1.4 1.4 0 0 0 1 2.4v6.533a1.4 1.4 0 0 0 1.4 1.4h4.667a1.4 1.4 0 0 0 1.4-1.4V7.067h3.819A1.4 1.4 0 0 0 13.6 8v2.8h-.467a.467.467 0 0 0-.466.467v8.866h-.934a.467.467 0 0 0-.466.467v2.333h-2.8v-1.866a1.4 1.4 0 0 0-1.4-1.4H2.4a1.4 1.4 0 0 0-1.4 1.4V27.6A1.4 1.4 0 0 0 2.4 29h4.667a1.4 1.4 0 0 0 1.4-1.4v-1.867h2.8v1.4c0 .258.209.467.466.467h6.534a.467.467 0 0 0 .466-.467v-1.4h2.8V27.6a1.4 1.4 0 0 0 1.4 1.4H27.6a1.4 1.4 0 0 0 1.4-1.4v-6.533a1.4 1.4 0 0 0-1.4-1.4h-4.667a1.4 1.4 0 0 0-1.4 1.4v1.866h-2.8V20.6a.467.467 0 0 0-.466-.467h-.934v-8.866a.467.467 0 0 0-.466-.467H16.4V8a1.4 1.4 0 0 0 1.314-.933h3.82v1.866a1.4 1.4 0 0 0 1.4 1.4H27.6a1.4 1.4 0 0 0 1.4-1.4V2.4A1.4 1.4 0 0 0 27.6 1Zm-2.707 2.613a.467.467 0 0 0 .747 0l.56-.746V4.11l-.933 1.244-.934-1.244V2.867l.56.746Zm-.093-1.68h.933l-.466.622-.467-.622Zm-.467 3.734.56.746a.467.467 0 0 0 .747 0l.56-.746V6.91l-.933 1.244-.934-1.244V5.667ZM4.36 3.613a.467.467 0 0 0 .747 0l.56-.746V4.11l-.934 1.244L3.8 4.111V2.867l.56.746Zm-.093-1.68H5.2l-.467.622-.466-.622ZM3.8 5.667l.56.746a.467.467 0 0 0 .747 0l.56-.746V6.91l-.934 1.244L3.8 6.911V5.667ZM1.933 8.933V2.4c0-.258.21-.467.467-.467h.467V9.4H2.4a.467.467 0 0 1-.467-.467ZM3.8 9.4v-.933l.56.746a.467.467 0 0 0 .747 0l.56-.746V9.4H3.8Zm3.733-.467a.467.467 0 0 1-.466.467H6.6V1.933h.467c.257 0 .466.21.466.467v6.533ZM8.467 5.2H12.2v.933H8.467V5.2ZM4.36 22.28a.466.466 0 0 0 .747 0l.56-.747v1.245l-.934 1.244-.933-1.244v-1.245l.56.747Zm-.093-1.68H5.2l-.467.622-.466-.622ZM3.8 24.333l.56.747a.466.466 0 0 0 .747 0l.56-.747v1.245l-.934 1.244-.933-1.244v-1.245ZM1.933 27.6v-6.533c0-.258.21-.467.467-.467h.467v7.467H2.4a.467.467 0 0 1-.467-.467Zm1.867.467v-.934l.56.747a.466.466 0 0 0 .747 0l.56-.747v.934H3.8Zm3.733-.467a.467.467 0 0 1-.466.467H6.6V20.6h.467c.257 0 .466.209.466.467V27.6Zm.934-2.8v-.933h2.8v.933h-2.8Zm15.866-.467.56.747a.467.467 0 0 0 .747 0l.56-.747v1.245l-.933 1.244-.934-1.244v-1.245Zm.56-2.053a.467.467 0 0 0 .747 0l.56-.747v1.245l-.933 1.244-.934-1.244v-1.245l.56.747ZM24.8 20.6h.933l-.466.622-.467-.622Zm-.467 7.467v-.934l.56.747a.467.467 0 0 0 .747 0l.56-.747v.934h-1.867Zm3.734-7V27.6a.467.467 0 0 1-.467.467h-.467V20.6h.467c.258 0 .467.209.467.467Zm-5.6 0c0-.258.209-.467.466-.467h.467v7.467h-.467a.467.467 0 0 1-.466-.467v-6.533Zm-.934 2.8v.933h-2.8v-.933h2.8Zm-4.666-2.8h.933v5.6h-5.6v-5.6h.933a.467.467 0 0 0 .467-.467v-8.867h2.8V20.6c0 .258.209.467.467.467Zm-1.4-10.267h-.934V8h.934v2.8Zm.933-3.733h-2.8a.467.467 0 0 1-.467-.467V4.733c0-.257.21-.466.467-.466h2.8c.258 0 .467.209.467.466V6.6a.467.467 0 0 1-.467.467Zm1.4-.934V5.2h3.733v.933H17.8Zm4.667 2.8V2.4c0-.258.209-.467.466-.467h.467V9.4h-.467a.467.467 0 0 1-.466-.467Zm1.866.467v-.933l.56.746a.467.467 0 0 0 .747 0l.56-.746V9.4h-1.867Zm3.734-.467a.467.467 0 0 1-.467.467h-.467V1.933h.467c.258 0 .467.21.467.467v6.533Z" fill="#1E1E1E" fill-opacity=".8"/><path d="M13.5 25a.5.5 0 0 0 0 1h3a.5.5 0 0 0 0-1h-3ZM15.5 5h-1a.5.5 0 0 0 0 1h1a.5.5 0 0 0 0-1Z" fill="#1E1E1E" fill-opacity=".8"/></svg>