<svg width="171" height="39" viewBox="0 0 171 39" fill="none" xmlns="http://www.w3.org/2000/svg">
<g clip-path="url(#clip0_2012_942)">
<path fill-rule="evenodd" clip-rule="evenodd" d="M51.9141 27.5111V11.0578H56.3256L61.9154 23.3531L67.4222 11.0578H71.6484V27.5111H68.0106V17.9394L63.8134 27.5111H59.9357L55.6846 17.9916V27.5111H51.9141Z" fill="white"/>
<path fill-rule="evenodd" clip-rule="evenodd" d="M86.2902 21.1407L83.2464 14.1665L80.2724 21.1407H86.2902ZM77.5515 27.5111H73.2734L80.6271 11.0578H85.894L93.3003 27.5111H89.0775L87.6199 24.2336H78.9642L77.5515 27.5111Z" fill="white"/>
<path fill-rule="evenodd" clip-rule="evenodd" d="M95.0078 27.5111V11.0578H110.837V14.3476H98.8309V17.6155H109.125V20.8264H98.8309V24.2199H110.866V27.5111H95.0078Z" fill="white"/>
<path fill-rule="evenodd" clip-rule="evenodd" d="M117.815 18.6126H126.131V14.3476H117.815V18.6126ZM113.938 27.5111V11.0578H127.183C128.953 11.0578 129.98 12.0741 129.98 13.8172V19.3448C129.98 20.6164 128.845 21.7659 126.646 21.7659C126.521 21.772 126.394 21.7659 126.264 21.7659L130.119 27.5111H125.864L122.208 21.8853H117.815V27.5111H113.938Z" fill="white"/>
<path fill-rule="evenodd" clip-rule="evenodd" d="M136.96 27.5207H135.648C133.934 27.5207 133.109 26.538 133.109 25.1072V22.9579H136.96V24.2309H145.142V20.8628C145.142 20.8628 137.255 20.8628 135.757 20.8628C134.259 20.8628 133.179 19.8629 133.179 18.4754V13.5907C133.179 12.1126 134.354 11.0681 135.783 11.0681C137.212 11.0681 146.512 11.0681 146.512 11.0681C147.962 11.0681 148.965 12.1421 148.965 13.695C148.965 15.2459 148.965 15.6584 148.965 15.6584H145.142V14.3579H136.96V17.5984H146.318C147.7 17.5984 148.965 18.5056 148.965 20.252V24.948C148.965 26.5476 148.071 27.5207 146.399 27.5207C144.727 27.5207 136.96 27.5207 136.96 27.5207Z" fill="white"/>
<path fill-rule="evenodd" clip-rule="evenodd" d="M152.656 27.5207V11.066H156.587V17.6471L164.073 11.066H169.394L160.464 18.7094L169.716 27.5207H164.206L156.587 20.0366V27.5207H152.656Z" fill="white"/>
<path d="M4.47216 0.5H31.5343C33.9045 0.5 35.8259 2.41076 35.8259 4.76781V33.6322C35.8259 35.9892 33.9045 37.9 31.5343 37.9H4.47216C2.10583 37.9 0.187522 35.9923 0.187522 33.6391V4.77468C0.183871 3.64223 0.633662 2.55491 1.43758 1.75285C2.2415 0.950799 3.33341 0.5 4.47216 0.5Z" fill="#42B0D5"/>
<path d="M23.683 18.151L30.718 9.41445L30.6973 9.38708L20.5317 14.2308L18.0231 3.34607H17.9817L15.4731 14.2308L5.30751 9.38708L5.28678 9.41445L12.3218 18.151L2.15625 22.9948L2.17007 23.029H13.4483L10.9397 33.9206L10.9674 33.9343L18.0024 25.1977L25.0375 33.9343L25.072 33.9137L22.5565 23.029H33.8417L33.8486 22.9948L23.683 18.151Z" fill="white"/>
</g>
<defs>
<clipPath id="clip0_2012_942">
<rect width="170" height="38" fill="white" transform="translate(0.1875 0.5)"/>
</clipPath>
</defs>
</svg>
