<svg width="31" height="30" fill="none" xmlns="http://www.w3.org/2000/svg"><g clip-path="url(#a)" fill="#1E1E1E" fill-opacity=".8"><path d="M29.454 24.795h-.417a1.24 1.24 0 0 0 0-.177V2.348c0-.684-.554-1.238-1.237-1.238H15.71c-.684 0-1.238.554-1.238 1.237v9.191a4.8 4.8 0 0 0-2.828 1.952 4.857 4.857 0 0 0-.693 4.058c.51 1.951.573 4.54-.48 5.614a2.199 2.199 0 0 1-2.22.417 2.468 2.468 0 0 1-1.86-1.414c-1.124-2.595 1.683-7.502 1.69-7.523.17-.254 4.08-6.328.085-9.898C8.003 4.574 4.15.502 1.173.898a.552.552 0 0 0 .142 1.096 3.818 3.818 0 0 1 2.057.46l-.792.954a1.237 1.237 0 0 0 .212 1.76L5.451 7.29c.218.175.49.27.77.269h.106a1.23 1.23 0 0 0 .828-.46l.77-.968c2.39 3.054-.707 7.918-.784 7.996-.128.22-3.097 5.416-1.768 8.484a3.535 3.535 0 0 0 2.637 2.008c.357.087.722.132 1.089.135.793.023 1.56-.281 2.121-.842 1.414-1.477 1.301-4.49.75-6.625a3.726 3.726 0 0 1 2.488-4.63v11.962a1.24 1.24 0 0 0 0 .177h-.353a1.237 1.237 0 0 0-1.266 1.237v1.86a1.237 1.237 0 0 0 1.266 1.237h15.35c.683 0 1.236-.554 1.236-1.237v-1.86c0-.683-.553-1.237-1.237-1.237ZM7.112 5.472l-.785.969a.177.177 0 0 1-.12.063.17.17 0 0 1-.127-.035L3.422 4.348a.177.177 0 0 1 0-.247l.784-.976a.177.177 0 0 1 .12-.064.17.17 0 0 1 .128.036l2.658 2.12a.17.17 0 0 1 .064.12.177.177 0 0 1-.064.135Zm8.407-3.125c0-.098.079-.177.176-.177h12.119c.098 0 .177.08.177.177v22.271c0 .098-.08.177-.177.177H15.71a.177.177 0 0 1-.191-.177V2.348Zm14.14 25.545c0 .097-.079.177-.177.177H14.105a.177.177 0 0 1-.177-.177v-1.86c0-.097.079-.176.177-.176h15.35a.177.177 0 0 1 .204.176v1.86Z"/><path d="M25.418 3.853h-7.325c-.684 0-1.238.554-1.238 1.237v7.332c0 .683.554 1.237 1.238 1.237h7.325c.683 0 1.237-.554 1.237-1.237V5.09c0-.683-.554-1.237-1.238-1.237Zm.176 8.576a.177.177 0 0 1-.177.17h-7.324a.177.177 0 0 1-.177-.177V5.09c0-.097.08-.176.177-.176h7.325c.097 0 .176.079.176.176v7.34ZM24.589 15.66h-5.656a.53.53 0 1 0 0 1.06h5.656a.53.53 0 1 0 0-1.06Z"/></g><defs><clipPath id="a"><path fill="#fff" transform="translate(.691)" d="M0 0h30v30H0z"/></clipPath></defs></svg>