<svg width="42" height="39" viewBox="0 0 42 39" fill="none" xmlns="http://www.w3.org/2000/svg">
<g clip-path="url(#clip0_2063_582)">
<path fill-rule="evenodd" clip-rule="evenodd" d="M4.43785 0.5L3.2189 2.60282H0.679688L1.94898 4.80518L0.679688 7.00131H3.2189L4.43785 9.10413L5.6568 7.00131H8.19602L6.9261 4.80518L8.19602 2.60282H5.6568L4.43785 0.5ZM15.4638 0.5L14.2448 2.60282H11.7056L12.9749 4.80518L11.7056 7.00131H14.2448L15.4638 9.10413L16.6821 7.00131H19.2213L17.952 4.80518L19.2213 2.60282H16.6821L15.4638 0.5ZM26.4878 0.5L25.2708 2.60282H22.7315L24.0008 4.80518L22.7315 7.00131H25.2708L26.4878 9.10413L27.7061 7.00131H30.2453L28.9761 4.80518L30.2453 2.60282H27.7061L26.4878 0.5ZM37.549 0.5L36.33 2.60282H33.7908L35.0607 4.80518L33.7908 7.00131H36.33L37.549 9.10413L38.7679 7.00131H41.3071L40.0372 4.80518L41.3071 2.60282H38.7679L37.549 0.5ZM10.1103 10.0311L8.89139 12.1339H6.35218L7.6221 14.3301L6.35218 16.5262H8.89139L10.1103 18.6352L11.3293 16.5262H13.8685L12.5992 14.3301L13.8685 12.1339H11.3293L10.1103 10.0311ZM20.9934 10.0311L19.7745 12.1339H17.2353L18.5052 14.3301L17.2353 16.5262H19.7745L20.9934 18.6352L22.2124 16.5262H24.7516L23.4817 14.3301L24.7516 12.1339H22.2124L20.9934 10.0311ZM31.8765 10.0311L30.6575 12.1339H28.1183L29.3876 14.3301L28.1183 16.5262H30.6575L31.8765 18.6352L33.0954 16.5262H35.6347L34.3647 14.3301L35.6347 12.1339H33.0954L31.8765 10.0311ZM0.79422 21.5406V26.5675L8.37663 26.5799L0.79422 33.3923V38.5H16.4172V33.6225H8.05632L16.4172 26.4617V21.5406H0.79422ZM18.3397 21.5406V38.5H22.6768V21.5406H18.3397ZM24.413 21.5406V38.5H29.01V30.5242L31.7424 38.5H34.3289L37.0619 30.5242V38.5H41.292V21.5406H35.8713L33.0652 29.3671L30.2567 21.5406H24.413Z" fill="#222D60"/>
</g>
<defs>
<clipPath id="clip0_2063_582">
<rect width="41" height="38" fill="white" transform="translate(0.492188 0.5)"/>
</clipPath>
</defs>
</svg>
