<svg width="170" height="38" viewBox="0 0 170 38" fill="none" xmlns="http://www.w3.org/2000/svg">
<path fill-rule="evenodd" clip-rule="evenodd" d="M51.7188 27.5111V11.0578H56.1303L61.7201 23.3531L67.2269 11.0578H71.4531V27.5111H67.8153V17.9394L63.6181 27.5111H59.7404L55.4893 17.9916V27.5111H51.7188Z" fill="#202020"/>
<path fill-rule="evenodd" clip-rule="evenodd" d="M86.0949 21.1407L83.0511 14.1665L80.0771 21.1407H86.0949ZM77.3562 27.5111H73.0781L80.4318 11.0578H85.6987L93.105 27.5111H88.8822L87.4246 24.2336H78.7689L77.3562 27.5111Z" fill="#202020"/>
<path fill-rule="evenodd" clip-rule="evenodd" d="M94.8125 27.5111V11.0578H110.641V14.3476H98.6356V17.6155H108.929V20.8264H98.6356V24.2199H110.671V27.5111H94.8125Z" fill="#202020"/>
<path fill-rule="evenodd" clip-rule="evenodd" d="M117.619 18.6126H125.936V14.3476H117.619V18.6126ZM113.742 27.5111V11.0578H126.988C128.757 11.0578 129.785 12.0741 129.785 13.8172V19.3448C129.785 20.6164 128.65 21.7659 126.451 21.7659C126.326 21.772 126.199 21.7659 126.068 21.7659L129.924 27.5111H125.669L122.013 21.8853H117.619V27.5111H113.742Z" fill="#202020"/>
<path fill-rule="evenodd" clip-rule="evenodd" d="M136.765 27.5207H135.452C133.739 27.5207 132.914 26.538 132.914 25.1072V22.9579H136.765V24.2309H144.947V20.8628C144.947 20.8628 137.059 20.8628 135.562 20.8628C134.063 20.8628 132.984 19.8629 132.984 18.4754V13.5907C132.984 12.1126 134.159 11.0681 135.588 11.0681C137.017 11.0681 146.317 11.0681 146.317 11.0681C147.767 11.0681 148.77 12.1421 148.77 13.695C148.77 15.2459 148.77 15.6584 148.77 15.6584H144.947V14.3579H136.765V17.5984H146.123C147.505 17.5984 148.77 18.5056 148.77 20.252V24.948C148.77 26.5476 147.876 27.5207 146.204 27.5207C144.532 27.5207 136.765 27.5207 136.765 27.5207Z" fill="#202020"/>
<path fill-rule="evenodd" clip-rule="evenodd" d="M152.461 27.5207V11.066H156.391V17.6471L163.878 11.066H169.199L160.268 18.7094L169.521 27.5207H164.011L156.391 20.0366V27.5207H152.461Z" fill="#202020"/>
<path d="M4.27684 0.5H31.339C33.7092 0.5 35.6305 2.41076 35.6305 4.76781V33.6322C35.6305 35.9892 33.7092 37.9 31.339 37.9H4.27684C1.91052 37.9 -0.00779045 35.9923 -0.00779045 33.6391V4.77468C-0.0114415 3.64223 0.43835 2.55491 1.24227 1.75285C2.04619 0.950799 3.1381 0.5 4.27684 0.5Z" fill="#42B0D5"/>
<path d="M23.4877 18.151L30.5227 9.41445L30.502 9.38708L20.3364 14.2308L17.8278 3.34607H17.7864L15.2778 14.2308L5.1122 9.38708L5.09147 9.41445L12.1265 18.151L1.96094 22.9948L1.97476 23.029H13.253L10.7444 33.9206L10.772 33.9343L17.8071 25.1977L24.8422 33.9343L24.8767 33.9137L22.3612 23.029H33.6463L33.6533 22.9948L23.4877 18.151Z" fill="#202020"/>
</svg>
