<svg width="166" height="49" viewBox="0 0 166 49" fill="none" xmlns="http://www.w3.org/2000/svg">
<g clip-path="url(#clip0_2012_978)">
<path d="M134.96 1.77195C134.986 1.74889 135.007 1.72053 135.021 1.68876C135.035 1.65698 135.043 1.62252 135.043 1.58766C135.043 1.5528 135.035 1.51834 135.021 1.48657C135.007 1.4548 134.986 1.42644 134.96 1.40338C128.448 -0.31658 109.529 1.40338 100.438 15.2859L100.56 15.6545C103.877 10.3718 111.003 6.31756 119.603 5.45758C123.166 5.21187 126.728 5.45758 130.291 6.07185L130.783 5.82614C132.257 4.5976 133.731 3.2462 134.96 1.77195ZM117.391 46.6138C117.365 46.6369 117.344 46.6652 117.33 46.697C117.316 46.7288 117.308 46.7633 117.308 46.7981C117.308 46.833 117.316 46.8674 117.33 46.8992C117.344 46.931 117.365 46.9593 117.391 46.9824C123.78 48.8252 142.699 46.9824 151.668 33.2227C151.791 33.0998 151.668 32.977 151.668 32.977C148.474 38.014 141.348 42.0682 132.748 42.9282C129.185 43.2968 125.623 43.051 122.06 42.4368C121.691 42.3139 121.691 42.4368 121.446 42.5596C119.971 43.7882 118.62 45.1396 117.391 46.6138Z" fill="#FF0000"/>
<path fill-rule="evenodd" clip-rule="evenodd" d="M124.517 29.9056L119.971 18.603H116.531L111.986 30.0285H114.566L115.303 28.0628H121.077L121.814 30.0285H124.517V29.9056ZM118.251 20.4458L120.217 25.8514H116.163L118.251 20.4458ZM108.177 23.8858L109.037 22.4115V29.7828H111.494V18.4802H108.792L105.229 24.6229L101.789 18.4802H99.209V30.0285H101.42V22.6572L102.28 24.1315L105.106 28.7999H105.229L108.055 24.1315L108.177 23.8858ZM162.11 23.8858C162.11 23.6401 162.725 22.6572 162.97 22.4115V29.7828H165.305V18.4802H162.848L159.285 24.6229L155.845 18.4802H153.019V30.0285H155.353V22.6572L156.213 24.1315L159.039 28.7999L161.988 24.1315L162.11 23.8858ZM95.2776 26.5886C95.2776 27.5714 94.7862 27.8171 93.8034 27.8171H91.3463C89.5035 27.8171 89.2578 27.5714 89.2578 25.4829V23.0258C89.2578 20.9373 89.5035 20.8144 91.3463 20.8144H93.8034C94.7862 20.8144 95.2776 20.9373 95.2776 21.7972H97.7347C97.7347 19.3401 96.8747 18.603 93.9262 18.603H90.8549C88.0292 18.603 86.9235 19.7087 86.9235 22.4115V26.0971C86.9235 28.7999 88.0292 29.9056 90.8549 29.9056H94.0491C96.9976 29.9056 97.9804 29.0456 97.9804 26.7114H95.5233L95.2776 26.5886ZM136.311 26.5886C136.311 27.5714 135.82 27.8171 134.714 27.8171H132.257C130.537 27.8171 130.291 27.5714 130.291 25.4829V23.0258C130.291 20.9373 130.537 20.8144 132.38 20.8144H134.837C135.82 20.8144 136.311 20.9373 136.311 21.7972H138.768C138.768 19.3401 137.785 18.603 134.837 18.603H131.765C128.94 18.603 127.834 19.7087 127.834 22.4115V26.0971C127.834 28.7999 129.063 29.9056 131.765 29.9056H134.837C137.785 29.9056 138.768 29.0456 138.768 26.7114H136.311V26.5886ZM148.965 26.5886C148.965 27.5714 148.474 27.8171 147.368 27.8171H144.542C142.699 27.8171 142.454 27.5714 142.454 25.4829V23.0258C142.454 20.9373 142.699 20.8144 144.542 20.8144H147.245C148.351 20.8144 148.842 20.9373 148.842 21.7972H151.299C151.299 19.3401 150.316 18.603 147.368 18.603H143.928C141.102 18.603 139.997 19.7087 139.997 22.4115V26.0971C139.997 28.7999 141.225 29.9056 143.928 29.9056H147.368C150.316 29.9056 151.299 29.0456 151.299 26.7114V23.7629H145.648V25.6057H148.965V26.7114V26.5886ZM4.36532 21.6744C5.59387 21.6744 5.96243 22.2887 5.96243 23.0258C5.97484 23.2968 5.8972 23.5642 5.74163 23.7865C5.58607 24.0087 5.36132 24.1732 5.10245 24.2543C5.40654 24.2849 5.68833 24.4277 5.89278 24.6549C6.09723 24.882 6.20967 25.1772 6.20814 25.4829C6.20814 26.22 5.83958 27.2028 4.24247 27.2028H0.679688V21.6744H4.36532ZM3.99676 23.8858C4.36532 23.8858 4.73389 23.8858 4.73389 23.1486C4.73389 22.7801 4.48818 22.5344 3.75105 22.5344H1.90823V23.8858H4.11961H3.99676ZM3.99676 26.3429C4.48818 26.3429 4.97959 26.3428 4.97959 25.4829C4.97959 24.9914 4.61103 24.7457 4.11961 24.7457H1.78538V26.3429H3.8739H3.99676ZM13.3337 21.6744V22.5344H9.64806V23.8858H13.2108V24.7457H9.64806V26.3429H13.3337V27.2028H8.41952V21.6744H13.3337ZM15.0537 22.5344V21.4287H20.3364V22.2887H18.3707V26.9571H17.1422V22.2887H15.0537V22.5344ZM21.8107 22.5344V21.4287H27.0934V22.2887H25.0049V26.9571H23.7763V22.2887H21.8107V22.5344ZM33.8504 21.4287V22.2887H30.1648V23.6401H33.8504V24.5H30.1648V26.3429H33.8504V27.2028H28.9362V21.6744H33.8504V21.4287ZM39.6246 21.4287C41.0988 21.4287 41.4674 22.0429 41.4674 22.9029C41.5094 23.1938 41.4457 23.4901 41.2879 23.7381C41.1301 23.986 40.8887 24.1692 40.6074 24.2543C41.2217 24.3772 41.3445 24.9915 41.3445 25.7286C41.3445 25.9743 41.3445 26.5886 41.5902 26.9571H40.3617L40.2388 26.0971C40.2388 25.36 40.2388 24.7457 39.256 24.7457H37.2903V26.9571H36.0618V21.4287H39.7474H39.6246ZM40.3617 23.0258C40.3617 22.4115 39.8703 22.2887 39.256 22.2887H37.2903V23.8858H39.256C39.9931 23.8858 40.3617 23.6401 40.3617 23.0258ZM48.5929 21.4287L49.8215 25.7286L51.1729 21.4287H52.4014L53.8757 25.7286L55.1042 21.4287H56.3328L54.4899 26.9571H53.2614L51.7872 22.6572L50.4358 26.9571H49.2072L47.3644 21.5515H48.5929V21.4287ZM61.1241 21.4287L63.5812 26.9571H62.3526L61.7384 25.6057H59.1584L58.5441 26.9571H57.3156L59.7727 21.4287H61.1241ZM60.387 22.4115L59.527 24.7457H61.3698L60.387 22.2887V22.4115ZM64.3183 21.4287H65.7926L67.3897 23.8858L68.8639 21.4287H70.3382L67.8811 24.8686V26.9571H66.6525V25.1143L64.4412 21.4287H64.3183ZM77.0952 23.0258H75.8666C75.8666 22.5344 75.3752 22.1658 74.3924 22.1658C73.6553 22.1658 73.1638 22.4115 73.1638 22.9029C73.1638 24.1315 77.218 22.9029 77.218 25.36C77.218 26.7114 75.7438 27.08 74.6381 27.08C72.6724 27.08 71.8124 26.3429 71.8124 25.1143H73.041C73.041 25.8514 73.6553 26.3429 74.6381 26.3429C75.3752 26.3429 75.9895 26.0971 75.9895 25.4829C75.9895 24.0086 71.9353 25.2372 71.9353 23.0258C71.9353 21.7972 73.041 21.3058 74.3924 21.3058C75.2524 21.3058 76.8495 21.3058 77.0952 23.0258Z" fill="#051039"/>
</g>
<defs>
<clipPath id="clip0_2012_978">
<rect width="164.625" height="47.9132" fill="white" transform="translate(0.679688 0.543365)"/>
</clipPath>
</defs>
</svg>
