<svg width="31" height="30" fill="none" xmlns="http://www.w3.org/2000/svg"><g clip-path="url(#a)" fill="#1E1E1E" fill-opacity=".8"><path d="M15.691 0c-8.284 0-15 6.716-15 15 0 8.284 6.716 15 15 15 8.285 0 15-6.716 15-15-.009-8.28-6.72-14.99-15-15Zm0 29c-7.732 0-14-6.268-14-14s6.268-14 14-14 14 6.268 14 14c-.008 7.728-6.271 13.991-14 14Z"/><path d="M15.691 2c-7.18 0-13 5.82-13 13s5.82 13 13 13 13-5.82 13-13c-.008-7.176-5.823-12.992-13-13Zm0 25c-6.627 0-12-5.373-12-12s5.373-12 12-12c6.628 0 12 5.373 12 12-.007 6.624-5.375 11.992-12 12Z"/><path d="M6.191 14.5h-2v1h2v-1ZM27.191 14.5h-2v1h2v-1ZM7.213 19.318l-1.733 1 .5.866 1.733-1-.5-.866ZM25.4 8.817l-1.732 1 .5.866 1.732-1-.5-.866ZM5.98 8.817l-.5.866 1.733 1 .5-.866-1.733-1ZM24.172 19.315l-.5.866 1.732 1 .5-.866-1.732-1ZM10.374 4.79l-.866.5 1 1.733.866-.5-1-1.732ZM16.191 3.5h-1v2h1v-2ZM21.008 4.79l-1 1.732.866.5 1-1.732-.866-.5ZM4.712 11.54l-.259.966 1.449.388.259-.966-1.45-.388ZM25.478 17.104l-.26.966 1.45.388.258-.966-1.448-.388ZM7.914 6.515l-.707.707 1.06 1.06.708-.707-1.06-1.06ZM13.196 3.763l-.966.259.389 1.449.966-.26-.389-1.448ZM18.185 3.766l-.388 1.449.966.258.388-1.448-.966-.26ZM23.47 6.516l-1.06 1.06.707.708 1.06-1.06-.706-.708ZM26.672 11.54l-1.45.389.26.965 1.448-.388-.258-.966ZM5.902 17.105l-1.449.388.259.966 1.449-.388-.259-.966ZM17.812 6.773A8.5 8.5 0 0 0 8.328 19.25a.5.5 0 0 0 .865-.5 7.5 7.5 0 1 1 13.76-1.874.5.5 0 1 0 .97.25v-.002a8.5 8.5 0 0 0-6.111-10.351Z"/><path d="m23.008 18.613-5.5-4.5a.452.452 0 0 0-.046-.025 1.994 1.994 0 1 0-1.89 2.9l6.95 2.483a.5.5 0 0 0 .486-.858ZM15.692 16a1 1 0 1 1 0-2 1 1 0 0 1 0 2Zm1.362.456c.277-.259.473-.591.567-.958l2.52 2.06-3.087-1.102ZM17.691 20h-4a2.5 2.5 0 0 0 0 5h4a2.5 2.5 0 0 0 0-5Zm0 4h-4a1.5 1.5 0 0 1 0-3h4a1.5 1.5 0 0 1 0 3Z"/><path d="M14.691 22h-1a.5.5 0 0 0 0 1h1a.5.5 0 0 0 0-1ZM17.691 22h-1a.5.5 0 0 0 0 1h1a.5.5 0 0 0 0-1Z"/></g><defs><clipPath id="a"><path fill="#fff" transform="translate(.691)" d="M0 0h30v30H0z"/></clipPath></defs></svg>