<svg width="27" height="27" fill="none" xmlns="http://www.w3.org/2000/svg"><path d="M19.114 4.442a.437.437 0 1 0 .875 0 2.109 2.109 0 0 0-2.187-2.187.438.438 0 0 0-.003.875 1.248 1.248 0 0 1 1.315 1.312ZM3.804 11.003H2.492a.437.437 0 0 0-.437.438v1.312a.437.437 0 1 0 .875 0v-.875h.874a.437.437 0 1 0 0-.875ZM3.804 24.125H2.93v-.874a.437.437 0 0 0-.875 0v1.312c0 .241.195.437.437.437h1.312a.437.437 0 0 0 0-.875ZM24.363 22.813a.437.437 0 0 0-.438.438v.874h-.874a.437.437 0 1 0 0 .875h1.312a.437.437 0 0 0 .437-.437V23.25a.437.437 0 0 0-.437-.438ZM24.363 11.003H23.05a.437.437 0 1 0 0 .875h.875v.875a.437.437 0 1 0 .874 0v-1.312a.437.437 0 0 0-.437-.438ZM6.867 5.754h5.686a.437.437 0 0 0 0-.875H6.867a.437.437 0 1 0 0 .875ZM12.55 3.13H10.8a.437.437 0 1 0 0 .874h1.75a.437.437 0 1 0 0-.874ZM9.487 3.567a.437.437 0 0 0-.437-.437H5.113a.437.437 0 1 0 0 .874H9.05a.437.437 0 0 0 .437-.437Z" fill="#1E1E1E" fill-opacity=".8"/><path d="M24.362 9.254h-4.811v-1.29a3.937 3.937 0 1 0-3.5 0v1.29H2.492A2.19 2.19 0 0 0 .306 11.44v13.122a2.19 2.19 0 0 0 2.187 2.187h21.87a2.19 2.19 0 0 0 2.187-2.187V11.44a2.19 2.19 0 0 0-2.187-2.187Zm-4.811 4.374a.875.875 0 1 1 1.75 0v9.185a.875.875 0 0 1-1.75 0v-9.185Zm-4.812-9.186a3.062 3.062 0 1 1 6.124 0 3.062 3.062 0 0 1-6.124 0Zm3.062 3.937c.294-.001.588-.035.875-.102v10.6h-1.75v-10.6c.287.067.58.1.875.102ZM14.74 18.877a.437.437 0 0 0-.437.437v3.5a.875.875 0 0 1-1.75 0v-3.5a.437.437 0 0 0-.437-.437H7.74a.437.437 0 0 0-.438.437v3.5a.875.875 0 0 1-1.75 0v-9.186a.875.875 0 1 1 1.75 0v3.061c0 .242.196.438.438.438h4.374a.437.437 0 0 0 .437-.438v-3.061a.875.875 0 1 1 1.75 0v3.061c0 .242.196.438.437.438h1.313v1.75h-1.313Zm10.935 5.686c0 .725-.587 1.312-1.312 1.312H2.492a1.312 1.312 0 0 1-1.312-1.312V11.44c0-.725.587-1.313 1.312-1.313h13.56v6.124h-.875v-2.624a1.75 1.75 0 0 0-3.5 0v2.624H8.178v-2.624a1.75 1.75 0 0 0-3.5 0v9.185a1.75 1.75 0 1 0 3.5 0v-3.062h3.5v3.062a1.75 1.75 0 1 0 3.499 0v-3.062h3.499v3.062a1.75 1.75 0 1 0 3.5 0v-9.185a1.75 1.75 0 0 0-1.75-1.75c-.309.002-.61.086-.875.243v-1.993h4.811c.725 0 1.313.588 1.313 1.313v13.122Z" fill="#1E1E1E" fill-opacity=".8"/></svg>