<svg width="30" height="30" fill="none" xmlns="http://www.w3.org/2000/svg"><path d="M29.474 12.842A.5.5 0 0 0 29 12.5h-2a.5.5 0 0 0-.5.5v2.5h-1v-4a.5.5 0 0 0-.5-.5h-4V8.5a.5.5 0 0 0-.5-.5H17V7h6.5a.5.5 0 0 0 .5-.5v-2a.5.5 0 0 0-.5-.5h-16a.5.5 0 0 0-.5.5v2a.5.5 0 0 0 .5.5H14v1h-3.5a.5.5 0 0 0-.5.5v2.732L7.35 13H4.5a.5.5 0 0 0-.5.5V15H3v-4a.5.5 0 0 0-.5-.5h-2a.5.5 0 0 0-.5.5v12.5a.5.5 0 0 0 .5.5h2a.5.5 0 0 0 .5-.5V20h1v1.5a.5.5 0 0 0 .5.5h2.85l2.874 1.916A.502.502 0 0 0 10.5 24h1v1.5a.5.5 0 0 0 .5.5h7a.5.5 0 0 0 .5-.5V24H25a.5.5 0 0 0 .5-.5v-4h1V22a.5.5 0 0 0 .5.5h2a.5.5 0 0 0 .474-.342l.5-1.5A.502.502 0 0 0 30 20.5v-6a.502.502 0 0 0-.026-.158l-.5-1.5ZM8 5h15v1H8V5Zm7 2h1v1h-1V7ZM2 23H1V11.5h1V23Zm1-4v-3h1v3H3Zm4.778 2.084A.503.503 0 0 0 7.5 21H5v-7h2v3a.5.5 0 0 0 1 0v-3.232l2.778-1.85A.5.5 0 0 0 11 11.5V9h9v2h-5a.5.5 0 0 0 0 1h7.5v11H10.65l-2.872-1.916ZM18.5 25h-6v-1h6v1Zm6-2h-1V12h1v11Zm1-4.5v-2h1v2h-1Zm3.5 1.919-.36 1.081H27.5v-8h1.14l.36 1.081v5.838Z" fill="#1E1E1E" fill-opacity=".8"/><path d="M12.5 12h.5a.5.5 0 0 0 0-1h-.5a.5.5 0 0 0 0 1ZM7.5 18.5a.5.5 0 0 0-.5.5v.5a.5.5 0 0 0 1 0V19a.5.5 0 0 0-.5-.5ZM9.5 15H21a.5.5 0 0 0 0-1H9.5a.5.5 0 0 0 0 1ZM9.5 17H21a.5.5 0 0 0 0-1H9.5a.5.5 0 0 0 0 1ZM9.5 19H21a.5.5 0 0 0 0-1H9.5a.5.5 0 0 0 0 1ZM21.5 20.5a.5.5 0 0 0-.5-.5H9.5a.5.5 0 0 0 0 1H21a.5.5 0 0 0 .5-.5Z" fill="#1E1E1E" fill-opacity=".8"/></svg>