<svg width="31" height="30" fill="none" xmlns="http://www.w3.org/2000/svg"><g clip-path="url(#a)" fill="#1E1E1E" fill-opacity=".8"><path d="M24.441 20.857v-.623a.207.207 0 0 0-.094-.166.39.39 0 0 0-.227-.068H7.263a.39.39 0 0 0-.228.068.207.207 0 0 0-.094.166v.623c0 .705 2.87 1.643 4.183 1.643h9.134c1.313 0 4.183-.938 4.183-1.643Zm-4.55.874a.3.3 0 0 1-.3.3h-1.808a.3.3 0 0 1-.3-.3v-.963a.3.3 0 0 1 .3-.3h1.808a.3.3 0 0 1 .3.3v.963Zm-8.4-.963a.3.3 0 0 1 .3-.3h1.806a.3.3 0 0 1 .3.3v.963a.3.3 0 0 1-.3.3H11.79a.3.3 0 0 1-.3-.3v-.963Zm3.052 0a.3.3 0 0 1 .3-.3h1.696a.3.3 0 0 1 .3.3v.963a.3.3 0 0 1-.3.3h-1.696a.3.3 0 0 1-.3-.3v-.963Zm-6.937.128a.135.135 0 0 1-.021-.084v-.044a.3.3 0 0 1 .3-.3h2.66a.3.3 0 0 1 .3.3v.926c0 .175-.15.313-.323.287-1.213-.18-2.71-.81-2.916-1.085Zm13.253 1.085a.284.284 0 0 1-.323-.287v-.926a.3.3 0 0 1 .3-.3h2.66a.3.3 0 0 1 .3.3v.038c0 .029-.002.058-.02.082-.203.281-1.703.912-2.917 1.093Z"/><path d="M30.316 15.808h-2.069a.725.725 0 0 1-.687-.517c-.335-1.081-.803-2.064-1.45-2.862a.746.746 0 0 1-.172-.468v-3c0-.089-.04-.175-.11-.239a.397.397 0 0 0-.265-.099h-2.62a.757.757 0 0 1-.684-.47 5.699 5.699 0 0 0-.065-.144c-.14-.301-.088-.664.158-.887l1.78-1.606a.339.339 0 0 0 .083-.11.31.31 0 0 0 0-.26.339.339 0 0 0-.082-.11l-2.395-2.16a.41.41 0 0 0-.533 0l-1.851 1.67a.744.744 0 0 1-.778.125 7.462 7.462 0 0 0-.308-.117.745.745 0 0 1-.509-.693V1.59c0-.09-.04-.176-.11-.24a.397.397 0 0 0-.265-.099h-3.388c-.1 0-.195.036-.266.1a.323.323 0 0 0-.11.239V3.86a.745.745 0 0 1-.507.692 7.541 7.541 0 0 0-.31.118.743.743 0 0 1-.778-.125l-1.85-1.667a.412.412 0 0 0-.267-.096c-.1 0-.194.034-.266.096l-2.395 2.16a.339.339 0 0 0-.082.11.31.31 0 0 0 0 .26c.02.041.047.079.082.11l1.778 1.603c.247.223.299.586.158.887a5.99 5.99 0 0 0-.067.149.757.757 0 0 1-.683.47H5.822c-.1 0-.195.035-.266.099a.323.323 0 0 0-.11.24v2.993a.746.746 0 0 1-.171.468c-.647.798-1.115 1.78-1.451 2.862a.725.725 0 0 1-.687.517h-2.07c-.1 0-.195.036-.266.1a.323.323 0 0 0-.11.239v.685c0 .53.233 1.037.647 1.411a2.34 2.34 0 0 0 1.563.586c.134 0 .24.116.228.25a36.49 36.49 0 0 0-.126 2.407c0 .043-.008.086-.009.13v4.481c0 .373.165.73.457.993a1.65 1.65 0 0 0 1.1.412h3.26a1.65 1.65 0 0 0 1.1-.412c.292-.263.456-.62.457-.993v-1.31a.7.7 0 0 1 .7-.7h11.249a.7.7 0 0 1 .7.7v1.31c0 .372.164.73.456.992a1.65 1.65 0 0 0 1.1.413h3.253a1.65 1.65 0 0 0 1.1-.412c.292-.263.457-.62.457-.993v-4.481c0-.044-.008-.087-.008-.13a34.523 34.523 0 0 0-.122-2.406.23.23 0 0 1 .228-.25 2.34 2.34 0 0 0 1.562-.585c.415-.374.648-.88.648-1.41v-.685a.31.31 0 0 0-.028-.13.338.338 0 0 0-.081-.11.411.411 0 0 0-.266-.1ZM9.828 11.062h11.726c2.243 0 3.837 1.054 4.829 3.245a.036.036 0 0 1-.01.044l-.924.832a4.82 4.82 0 0 1-1.553.938 5.213 5.213 0 0 1-1.834.327H9.32a5.214 5.214 0 0 1-1.833-.327 4.822 4.822 0 0 1-1.553-.938l-.923-.832a.038.038 0 0 1-.01-.045c.991-2.19 2.585-3.244 4.827-3.244Zm5.863-.682h-2.55c-.395 0-.72-.334-.602-.712a2.91 2.91 0 0 1 .871-1.318 3.467 3.467 0 0 1 2.28-.833c.85 0 1.667.299 2.278.833.417.366.716.821.871 1.318.118.378-.207.712-.603.712h-2.545ZM9.223 9.304a.402.402 0 0 0 .231-.071.338.338 0 0 0 .134-.185c.144-.503.364-.986.654-1.434a.31.31 0 0 0 .049-.216.327.327 0 0 0-.108-.197L8.624 5.796a.7.7 0 0 1 .001-1.04l.818-.736a.7.7 0 0 1 .937.001l1.664 1.501a.41.41 0 0 0 .457.053 6.66 6.66 0 0 1 1.594-.596.38.38 0 0 0 .204-.121.317.317 0 0 0 .078-.208V2.63a.7.7 0 0 1 .7-.7h1.228a.7.7 0 0 1 .7.7v2.02c0 .075.027.148.078.208a.38.38 0 0 0 .204.12 6.652 6.652 0 0 1 1.592.596.41.41 0 0 0 .458-.052l1.665-1.503a.7.7 0 0 1 .938 0l.816.736a.7.7 0 0 1 0 1.04l-1.562 1.408a.327.327 0 0 0-.108.197.31.31 0 0 0 .049.216c.29.448.51.93.653 1.432.021.073.068.137.134.184a.402.402 0 0 0 .231.07h2.33a.7.7 0 0 1 .7.7v.09c0 .582-.693.937-1.232.72-.689-.278-1.482-.432-2.397-.432h-1.161c-.378 0-.68-.305-.77-.672a3.552 3.552 0 0 0-1.126-1.832c-.752-.66-1.76-1.029-2.808-1.029-1.049 0-2.056.37-2.808 1.029-.57.5-.96 1.14-1.126 1.832-.089.367-.391.672-.77.672H9.828c-.915 0-1.71.153-2.398.431-.539.218-1.23-.137-1.23-.718v-.087a.7.7 0 0 1 .699-.7l2.324-.002ZM2.9 18.148c-.386 0-.756-.14-1.03-.386a1.254 1.254 0 0 1-.427-.929c0-.19.155-.345.346-.345h.851c.447 0 .78.413.706.853-.027.16-.052.32-.075.482a.376.376 0 0 1-.37.325Zm4.91 8.672H4.555a.85.85 0 0 1-.568-.213.691.691 0 0 1-.236-.512V24.9c0-.484.583-.814 1.066-.814h3.094a.7.7 0 0 1 .7.7v1.31a.691.691 0 0 1-.235.512.85.85 0 0 1-.567.213Zm7.88-3.416v.001H4.817a1.13 1.13 0 0 1-.753-.282.918.918 0 0 1-.313-.68v-.052c0-2.623.223-4.77.679-6.463.116-.43.639-.564.97-.267a5.58 5.58 0 0 0 1.797 1.086 6.03 6.03 0 0 0 2.122.379h12.742a6.029 6.029 0 0 0 2.123-.378 5.577 5.577 0 0 0 1.797-1.087c.33-.298.855-.163.97.266.456 1.692.678 3.84.678 6.462v.052c0 .255-.112.5-.312.68-.2.18-.47.281-.753.281H15.693l-.002.002Zm11.136 3.416h-3.254a.85.85 0 0 1-.568-.213.691.691 0 0 1-.235-.512v-1.31a.7.7 0 0 1 .7-.7h3.094c.483 0 1.065.33 1.065.813v1.197a.691.691 0 0 1-.235.512.85.85 0 0 1-.567.213Zm3.112-9.987c0 .349-.154.683-.427.93a1.541 1.541 0 0 1-1.03.385c-.19 0-.349-.14-.376-.328-.023-.16-.048-.32-.074-.478a.729.729 0 0 1 .707-.854h.851c.191 0 .347.154.349.345Z"/></g><defs><clipPath id="a"><path fill="#fff" transform="translate(.691)" d="M0 0h30v30H0z"/></clipPath></defs></svg>